<?xml version="1.0" encoding="utf-8"?>

<!DOCTYPE svg PUBLIC "-//W3C//DTD SVG 1.1//EN" "http://www.w3.org/Graphics/SVG/1.1/DTD/svg11.dtd">
<svg version="1.1" id="Layer_1" xmlns="http://www.w3.org/2000/svg" xmlns:xlink="http://www.w3.org/1999/xlink" x="0px" y="0px"
	 viewBox="0 0 1362.47 1641.898" enable-background="new 0 0 1362.47 1641.898" xml:space="preserve">
<g>
	<path d="M520.296,237.526h39.717v101.468c39.363-7.069,79.86-10.757,121.232-10.757s81.846,3.688,121.209,10.757V237.526h39.717
		c13.499,0,24.421-10.946,24.421-24.421V45.347c0-13.475-10.922-24.398-24.421-24.398H520.296
		c-13.476,0-24.422,10.922-24.422,24.398v167.758C495.875,226.58,506.82,237.526,520.296,237.526"/>
	<path d="M1338.235,472.938l-113.454-117.52c-4.492-4.681-10.662-7.376-17.14-7.471c-6.407-0.142-12.719,2.34-17.4,6.832
		l-107.78,104.068c57.495,41.892,108.229,92.508,150.216,149.909l104.943-101.303
		C1347.337,498.093,1347.597,482.631,1338.235,472.938"/>
	<path d="M280.018,458.869L172.214,354.801c-4.657-4.515-10.922-7.045-17.376-6.856c-6.478,0.118-12.648,2.79-17.14,7.47
		L24.244,472.936c-4.492,4.657-6.974,10.899-6.856,17.376c0.118,6.478,2.79,12.648,7.447,17.14l104.943,101.303
		C171.789,551.378,222.523,500.738,280.018,458.869"/>
	<path d="M681.243,1454.87c-244.639,0-443.651-199.012-443.651-443.651c0-244.639,199.012-443.651,443.651-443.651
		s443.651,199.012,443.651,443.651C1124.894,1255.858,925.882,1454.87,681.243,1454.87 M681.243,401.487
		c-336.202,0-609.731,273.529-609.731,609.731c0,336.202,273.529,609.731,609.731,609.731s609.707-273.529,609.707-609.731
		C1290.95,675.017,1017.445,401.487,681.243,401.487"/>
	<path d="M786.151,727.654L667.188,917.469c-1.915-0.047-3.901-0.047-5.839-0.024c-63.855,1.608-114.329,54.659-112.698,118.49
		c1.584,63.831,54.635,114.329,118.466,112.721c63.855-1.631,114.329-54.659,112.721-118.513
		c-0.567-22.601-7.612-43.547-19.291-61.065l98.608-200.761c9.22-18.936,2.955-42.412-15.343-53.878
		C824.237,702.169,798.421,708.079,786.151,727.654"/>
</g>
</svg>
